<?xml version="1.0" standalone="no"?>
<!DOCTYPE svg PUBLIC "-//W3C//DTD SVG 20010904//EN"
 "http://www.w3.org/TR/2001/REC-SVG-20010904/DTD/svg10.dtd">
<svg version="1.0" xmlns="http://www.w3.org/2000/svg"
 width="300.000000pt" height="50.000000pt" viewBox="0 0 553.000000 105.000000"
 preserveAspectRatio="xMidYMid meet">

<g transform="translate(0.000000,105.000000) scale(0.100000,-0.100000)"
fill="#5952ff" stroke="none">
<path d="M460 1014 c-144 -25 -212 -54 -275 -119 -67 -69 -88 -123 -93 -238
-8 -179 51 -334 179 -471 191 -204 409 -205 615 -1 201 199 308 474 236 611
-49 94 -174 163 -372 203 -59 13 -249 22 -290 15z m265 -274 c78 -37 105 -74
105 -148 0 -108 -76 -201 -189 -232 -34 -9 -52 -8 -94 4 -59 18 -93 44 -128
101 -34 56 -34 154 -1 208 54 86 198 117 307 67z"/>
<path d="M4980 460 l0 -320 55 0 55 0 0 131 c0 160 11 192 78 221 38 17 51 19
82 9 70 -21 75 -34 78 -207 l3 -154 55 0 54 0 0 151 c0 187 -9 228 -63 274
-38 33 -45 35 -109 35 -76 0 -114 -15 -146 -55 -11 -14 -23 -25 -26 -25 -3 0
-6 59 -6 130 l0 130 -55 0 -55 0 0 -320z"/>
<path d="M1626 725 c-135 -55 -210 -192 -184 -335 31 -167 169 -270 346 -258
119 9 217 71 270 172 23 44 27 63 27 141 0 84 -2 94 -34 148 -37 65 -101 118
-170 142 -69 24 -184 19 -255 -10z m206 -81 c226 -77 173 -413 -65 -414 -67 0
-110 17 -156 62 -112 109 -63 308 86 354 53 17 83 16 135 -2z"/>
<path d="M2805 724 c-5 -1 -27 -5 -47 -9 l-38 -6 0 -245 c0 -281 2 -292 77
-320 44 -17 83 -15 136 5 26 10 28 14 22 44 -10 44 -16 48 -52 38 -20 -6 -39
-5 -54 3 -23 11 -24 16 -27 144 l-3 132 71 0 70 0 0 35 0 35 -70 0 -69 0 -3
73 c-2 43 -7 73 -13 71z"/>
<path d="M2180 440 c0 -121 4 -169 15 -197 46 -110 233 -146 338 -65 60 46 67
72 67 257 l0 165 -50 0 -50 0 0 -145 c0 -87 -5 -154 -12 -169 -34 -77 -162
-77 -196 0 -7 15 -12 82 -12 169 l0 145 -50 0 -50 0 0 -160z"/>
<path d="M3060 370 l0 -230 55 0 55 0 0 133 c0 115 3 136 20 165 21 35 72 62
115 62 23 0 25 3 25 50 0 47 -2 50 -26 50 -33 0 -61 -15 -101 -53 l-33 -31 0
42 0 42 -55 0 -55 0 0 -230z"/>
<path d="M3485 572 c-83 -46 -122 -128 -111 -235 7 -72 24 -105 76 -150 55
-47 138 -65 217 -47 53 11 133 54 133 70 0 3 -11 17 -25 30 l-25 24 -41 -23
c-33 -19 -52 -22 -100 -19 -50 4 -65 9 -88 34 -16 16 -32 39 -36 52 l-6 22
177 0 177 0 -6 72 c-7 85 -39 139 -102 175 -61 34 -173 32 -240 -5z m188 -63
c33 -18 56 -51 57 -81 l0 -28 -125 0 c-112 0 -125 2 -125 18 0 26 38 82 63 92
32 13 105 12 130 -1z"/>
<path d="M4022 583 c-44 -21 -96 -84 -110 -132 -40 -130 21 -266 135 -305 79
-27 138 -17 206 36 l37 29 0 -36 0 -35 50 0 50 0 0 230 0 230 -50 0 -50 0 0
-35 c0 -40 -9 -44 -36 -14 -10 12 -31 27 -46 35 -37 19 -145 18 -186 -3z m208
-93 c39 -28 63 -93 55 -148 -14 -91 -100 -142 -189 -112 -100 33 -118 190 -30
259 36 29 124 29 164 1z"/>
<path d="M4604 580 c-48 -21 -100 -81 -114 -130 -16 -55 -11 -141 9 -186 59
-129 248 -172 370 -83 46 33 48 38 23 60 -33 28 -40 29 -74 9 -51 -30 -115
-35 -158 -13 -38 19 -80 89 -80 132 0 39 37 105 69 124 44 26 120 22 164 -7
l35 -24 32 33 32 33 -29 19 c-61 44 -91 53 -165 52 -48 0 -87 -7 -114 -19z"/>
</g>
</svg>
